{"title":"Master.Of.Sex.S01E02.1080p.WEB-DL.iTA.ENG.6CH.SUBS.H264-SMiL3.mk","uid":10430785,"size":2295184536,"categoryP":"video","categoryS":"hd___tv_shows","magnet":"?xt=urn:btih:c66cbf4339404cbb60c039f115af5af13af8481b&amp;dn=Master.Of.Sex.S01E02.1080p.WEB-DL.iTA.ENG.6CH.SUBS.H264-SMiL3.mk&amp;tr=udp%3A%2F%2Ftracker.openbittorrent.com%3A80&amp;tr=udp%3A%2F%2Fopen.demonii.com%3A1337&amp;tr=udp%3A%2F%2Ftracker.coppersurfer.tk%3A6969&amp;tr=udp%3A%2F%2Fexodus.desync.com%3A6969","seeders":8,"leechers":0,"uploader":"SMiL3MAN","files":1,"time":1403798960,"description":"SMiL3 iS PROUD TO PRESENT:\n\nMaster.Of.Sex.S01E02.1080p.WEB-DL.iTA.ENG.6CH.SUBS.H264-SMiL3\n\n  \t\n        SHOW: Masters Of Sex (2013)\n        EPiSODE: Season 01 Episode 02/12\n        TiTLE: Race to Space\n        AiR DATE: 2014/06/09 (iTA) / 2013/10/06 (USA)\n        iMDB: http://www.imdb.com/title/tt2137109/\n\nGENERAL FiLE iNFO:\n\n        SiZE: 2.13 GB\n        LENGTH: 52min\n        ViDEO: 1916x1076 - 5000 Kbps\n        AUDiO #1: iTALiAN AC3 5.1 384 Kbps\n        AUDiO #2: ENGLiSH AC3 5.1 384 Kbps\n        SUBTiTLES: iTALiAN, ENGLiSH\n        RELEASE DATE: 2014/06/25\n        MD5 CHECKSUM: cb04d070dee563eb8dcaeed74af90373\n\nSOURCES:\n\n        ViDEO AND ENGLISH AUDiO: WEB-DL by BS\n        iTALiAN AUDIO: HDTV by SATOSHi\n        iTALiAN SUBTiTLES: ITALIANSUBS CREW\n\n        EVERYTHiNG MUXED BY ME! THANKS TO THE ORiGiNAL SOURCES!\n        (SUMMARY WAS CROPPED DUE TO UNAVAiLABLE iTALiAN AUDiO FOR SUMMARY!)\n\nMEDiAiNFO:\n\nGeneral\nUnique ID                                : 230589227510061380823406055410236779983 (0xAD79DEABF6FE0892A09089926B45EDCF)\nComplete name                            : D:seriesMasters_Of_Sex_1080p_SMiL3Master.Of.Sex.S01E02.1080p.WEB-DL.iTA.ENG.6CH.SUBS.H264-SMiL3.mkv\nFormat                                   : Matroska\nFormat version                           : Version 4 / Version 2\nFile size                                : 2.14 GiB\nDuration                                 : 51mn 50s\nOverall bit rate                         : 5 904 Kbps\nEncoded date                             : UTC 2014-06-21 20:50:11\nWriting application                      : mkvmerge v7.0.0 ('Where We Going') 64bit built on Jun  9 2014 15:16:27\nWriting library                          : libebml v1.3.0 + libmatroska v1.4.1\nDURATION                                 : 00:51:50.208000000\nNUMBER_OF_FRAMES                         : 97194\nNUMBER_OF_BYTES                          : 149289984\n_STATISTICS_WRITING_APP                  : mkvmerge v7.0.0 ('Where We Going') 64bit built on Jun  9 2014 15:16:27\n_STATISTICS_WRITING_DATE_UTC             : 2014-06-21 20:50:11\n_STATISTICS_TAGS                         : BPS DURATION NUMBER_OF_FRAMES NUMBER_OF_BYTES\n\nVideo\nID                                       : 1\nFormat                                   : AVC\nFormat/Info                              : Advanced Video Codec\nFormat profile                           : &lt;a class=&quot;__cf_email__&quot; href=&quot;/cdn-cgi/l/email-protection&quot; data-cfemail=&quot;6e260709062e225a405e&quot;&gt;[email&amp;#160;protected]&lt;/a&gt;&lt;script cf-hash='f9e31' type=&quot;text/javascript&quot;&gt;\n/* &lt;![CDATA[ */!function(){try{var t=&quot;currentScript&quot;in document?document.currentScript:function(){for(var t=document.getElementsByTagName(&quot;script&quot;),e=t.length;e--;)if(t[e].getAttribute(&quot;cf-hash&quot;))return t[e]}();if(t&amp;&amp;t.previousSibling){var e,r,n,i,c=t.previousSibling,a=c.getAttribute(&quot;data-cfemail&quot;);if(a){for(e=&quot;&quot;,r=parseInt(a.substr(0,2),16),n=2;a.length-n;n+=2)i=parseInt(a.substr(n,2),16)^r,e+=String.fromCharCode(i);e=document.createTextNode(e),c.parentNode.replaceChild(e,c)}}}catch(u){}}();/* ]]&gt; */&lt;/script&gt;\nFormat settings, CABAC                   : Yes\nFormat settings, ReFrames                : 4 frames\nCodec ID                                 : V_MPEG4/ISO/AVC\nDuration                                 : 51mn 50s\nBit rate                                 : 5 018 Kbps\nWidth                                    : 1 916 pixels\nHeight                                   : 1 076 pixels\nDisplay aspect ratio                     : 16:9\nFrame rate mode                          : Constant\nFrame rate                               : 23.976 fps\nColor space                              : YUV\nChroma subsampling                       : 4:2:0\nBit depth                                : 8 bits\nScan type                                : Progressive\nBits/(Pixel*Frame)                       : 0.102\nStream size                              : 1.82 GiB (85%)\nTitle                                    : WEB-DL by BS\nLanguage                                 : English\nDefault                                  : Yes\nForced                                   : No\nColor primaries                          : BT.709\nTransfer characteristics                 : BT.709\nMatrix coefficients                      : BT.709\n\nAudio #1\nID                                       : 2\nFormat                                   : AC-3\nFormat/Info                              : Audio Coding 3\nMode extension                           : CM (complete main)\nFormat settings, Endianness              : Big\nCodec ID                                 : A_AC3\nDuration                                 : 51mn 50s\nBit rate mode                            : Constant\nBit rate                                 : 384 Kbps\nChannel(s)                               : 6 channels\nChannel positions                        : Front: L C R, Side: L R, LFE\nSampling rate                            : 48.0 KHz\nBit depth                                : 16 bits\nCompression mode                         : Lossy\nDelay relative to video                  : 21ms\nStream size                              : 142 MiB (7%)\nTitle                                    : by SATOSHi\nLanguage                                 : Italian\nDefault                                  : Yes\nForced                                   : No\n\nAudio #2\nID                                       : 3\nFormat                                   : AC-3\nFormat/Info                              : Audio Coding 3\nMode extension                           : CM (complete main)\nFormat settings, Endianness              : Big\nCodec ID                                 : A_AC3\nDuration                                 : 51mn 50s\nBit rate mode                            : Constant\nBit rate                                 : 384 Kbps\nChannel(s)                               : 6 channels\nChannel positions                        : Front: L C R, Side: L R, LFE\nSampling rate                            : 48.0 KHz\nBit depth                                : 16 bits\nCompression mode                         : Lossy\nDelay relative to video                  : 27ms\nStream size                              : 142 MiB (7%)\nTitle                                    : WEB-DL by BS\nLanguage                                 : English\nDefault                                  : No\nForced                                   : No\n\nText #1\nID                                       : 4\nFormat                                   : UTF-8\nCodec ID                                 : S_TEXT/UTF8\nCodec ID/Info                            : UTF-8 Plain Text\nTitle                                    : by iTASA\nLanguage                                 : Italian\nDefault                                  : No\nForced                                   : No\n\nText #2\nID                                       : 5\nFormat                                   : UTF-8\nCodec ID                                 : S_TEXT/UTF8\nCodec ID/Info                            : UTF-8 Plain Text\nLanguage                                 : English\nDefault                                  : No\nForced                                   : No\n\n\nSMiL3 AND SEED!","torrent":{"xt":"urn:btih:c66cbf4339404cbb60c039f115af5af13af8481b","amp;dn":"Master.Of.Sex.S01E02.1080p.WEB-DL.iTA.ENG.6CH.SUBS.H264-SMiL3.mk","amp;tr":["udp%3A%2F%2Ftracker.openbittorrent.com%3A80","udp%3A%2F%2Fopen.demonii.com%3A1337","udp%3A%2F%2Ftracker.coppersurfer.tk%3A6969","udp%3A%2F%2Fexodus.desync.com%3A6969"],"infoHash":"c66cbf4339404cbb60c039f115af5af13af8481b","infoHashBuffer":{"type":"Buffer","data":[198,108,191,67,57,64,76,187,96,192,57,241,21,175,90,241,58,248,72,27]},"announce":[],"urlList":[]}}